<svg xmlns="http://www.w3.org/2000/svg" width="57" height="58" viewBox="0 0 57 58" fill="none"><path d="M35.5284 29.1704H31.4534C30.9262 29.1704 30.4989 29.5978 30.4989 30.1249C30.4989 30.652 30.9262 31.0795 31.4534 31.0795H35.9861C35.6809 30.463 35.5346 29.8174 35.5284 29.1704Z" fill="#E8AE2A"></path><path d="M56.9843 15.3708C56.9843 13.3413 55.446 11.6958 53.5483 11.6958H47.4207C45.5231 11.6958 43.9847 13.3411 43.9847 15.3708V22.8262L44.8936 22.4766L48.3164 15.8128L46.4458 24.2048L39.147 27.0121C37.9791 27.4614 37.4011 28.7704 37.8485 29.9337C38.2917 31.0859 39.5946 31.6844 40.7701 31.2322L49.2002 27.9898C49.9044 27.7188 50.4299 27.1127 50.5952 26.3716L52.6609 17.1046L52.7653 26.3471C52.7763 27.3223 51.9836 29.2444 49.9792 30.0154C49.8141 30.0789 44.0642 32.2905 43.9151 32.3478V54.9034C43.9151 56.4851 45.1973 57.7671 46.7788 57.7671C48.3604 57.7671 49.6425 56.4851 49.6425 54.9034V34.2254H51.2726V54.9034C51.2726 56.4851 52.5548 57.7671 54.1363 57.7671C55.7178 57.7671 57 56.4851 57 54.9034C57.0005 29.8369 56.9843 15.4454 56.9843 15.3708Z" fill="#E8AE2A"></path><path d="M50.4577 10.1723C53.2667 10.1723 55.5438 7.89514 55.5438 5.08614C55.5438 2.27714 53.2667 0 50.4577 0C47.6487 0 45.3716 2.27714 45.3716 5.08614C45.3716 7.89514 47.6487 10.1723 50.4577 10.1723Z" fill="#E8AE2A"></path><path d="M17.5628 19.3175C20.3746 19.3175 22.6539 17.0381 22.6539 14.2264C22.6539 11.4146 20.3746 9.13525 17.5628 9.13525C14.7511 9.13525 12.4717 11.4146 12.4717 14.2264C12.4717 17.0381 14.7511 19.3175 17.5628 19.3175Z" fill="#E8AE2A"></path><path d="M35.7962 32.6184H23.8447L27.694 31.3804C28.9066 30.9904 29.5735 29.6911 29.1835 28.4785C28.7935 27.2659 27.4944 26.5991 26.2816 26.989L25.7627 27.1558L23.3305 23.1321C23.0577 22.6811 22.4709 22.5362 22.0197 22.8091C21.5685 23.0818 21.4239 23.6687 21.6967 24.1198L23.895 27.7565L20.1084 28.9744L20.1708 25.0053C20.2044 22.8599 18.4813 21.0975 16.3365 21.0822L12.7836 21.0567C10.6359 21.0414 8.88787 22.7831 8.89364 24.9296L8.92947 38.0292C8.93433 39.8161 10.1672 41.3784 11.9286 41.7824H7.07452L3.78285 25.0373C3.57949 24.0026 2.57583 23.3286 1.54131 23.5322C0.50667 23.7355 -0.167149 24.7391 0.0362063 25.7737L3.6307 44.0597C3.80263 44.9343 4.55592 45.5688 5.441 45.598L1.77077 55.1144C1.51791 55.7701 1.84436 56.5069 2.50032 56.7598C3.15594 57.0129 3.89284 56.6863 4.1457 56.0302L8.16804 45.6007H16.2037L18.5036 51.564L17.5049 54.0885C16.9424 55.5098 17.6387 57.118 19.06 57.6804C20.4817 58.2428 22.0897 57.5462 22.6521 56.1252L28.9348 40.2483C29.6526 38.4342 28.314 36.4622 26.3613 36.4622C26.3587 36.4622 26.3559 36.4622 26.3533 36.4622C25.4547 36.4648 19.9239 36.481 17.0812 36.4893C15.4765 36.4939 14.1163 35.3048 13.9114 33.7133C13.9112 33.7118 13.9111 33.7102 13.9107 33.7087L13.2089 28.0549L15.4527 33.146C15.929 34.227 17.1448 34.7731 18.2695 34.4115L21.3295 33.4273C21.2731 33.5712 21.2411 33.7272 21.2411 33.8911C21.2411 34.5946 21.8122 35.1639 22.5139 35.1639H35.7964C36.4991 35.1639 37.0689 34.5941 37.0689 33.8911C37.0689 33.1882 36.4992 32.6184 35.7962 32.6184ZM19.7846 42.0167L22.2848 42.0095L19.8856 48.0725L18.9311 45.5975C19.9561 45.5642 20.7774 44.7246 20.7774 43.6915C20.7773 42.9693 20.376 42.3411 19.7846 42.0167ZM18.8353 29.384L16.9865 25.189L19.9243 29.0337L18.8353 29.384Z" fill="#E8AE2A"></path></svg>