<svg xmlns="http://www.w3.org/2000/svg" width="53" height="55" viewBox="0 0 53 55" fill="none"><path d="M18.4682 54.2506C18.2297 54.7257 17.7516 55 17.2553 55C17.0501 55 16.8417 54.9531 16.646 54.8542C12.4631 52.7402 9.00018 49.2654 6.89457 45.0695C6.55761 44.398 6.82703 43.5793 7.49628 43.2412C8.16599 42.9029 8.98164 43.1734 9.31845 43.8449C11.1641 47.5229 14.2 50.5691 17.8666 52.4221C18.5359 52.7604 18.8052 53.5791 18.4682 54.2506ZM52.4835 0.292822C52.1575 0.0345944 51.7316 -0.0593477 51.3275 0.0374687L26.4998 5.99032L1.67216 0.0374687C1.26795 -0.0598016 0.842033 0.0347457 0.516226 0.292822C0.190117 0.551049 0 0.94482 0 1.36158V32.8962C0 33.5263 0.430892 34.074 1.04165 34.2203L5.94655 35.3962C6.6752 35.5709 7.40748 35.1195 7.58162 34.3882C7.75575 33.657 7.30601 32.9224 6.57706 32.7477L2.7138 31.8215V3.08673L25.1431 8.46458V15.4287C25.1431 16.1807 25.7505 16.7902 26.5 16.7902C27.2495 16.7902 27.8569 16.1807 27.8569 15.4287V8.46458L50.2862 3.08673V31.8217L45.861 32.8827C45.1322 33.0575 44.6825 33.7921 44.8566 34.5233C45.0054 35.1482 45.5618 35.5688 46.1752 35.5686C46.2796 35.5686 46.3857 35.5564 46.4918 35.531L51.9585 34.2203C52.5693 34.0739 53 33.5263 53 32.8962V1.36158C52.9998 0.94482 52.8096 0.551049 52.4835 0.292822ZM42.6049 35.1826C42.6049 44.0933 35.3802 51.3426 26.4998 51.3426C17.6191 51.3426 10.394 44.0933 10.394 35.1826C10.394 26.272 17.6191 19.0226 26.4998 19.0226C35.3802 19.0226 42.6049 26.272 42.6049 35.1826ZM25.1429 39.7136C23.6323 39.2573 22.4388 38.0598 21.9841 36.5441H13.1761C13.8133 42.8687 18.8395 47.912 25.1429 48.5513V39.7136ZM26.4998 37.1903C27.6029 37.1903 28.5005 36.2896 28.5005 35.1827C28.5005 34.0759 27.603 33.1752 26.4998 33.1752C25.3965 33.1752 24.4989 34.0759 24.4989 35.1827C24.4989 36.2896 25.3965 37.1903 26.4998 37.1903ZM39.823 36.5441H31.0153C30.5606 38.0597 29.367 39.2572 27.8567 39.7136V48.5513C34.1599 47.912 39.186 42.8687 39.823 36.5441ZM39.823 33.8211C39.1409 27.0488 33.4259 21.7455 26.4998 21.7455C19.5735 21.7455 13.8582 27.0488 13.1761 33.8211H21.9841C22.5681 31.874 24.3715 30.452 26.4998 30.452C28.6279 30.452 30.4312 31.874 31.0153 33.8211H39.823ZM45.5033 27.124C46.1725 26.7859 46.4421 25.9673 46.1048 25.2957C43.9986 21.099 40.5355 17.624 36.3534 15.511C35.6841 15.1726 34.868 15.4429 34.5312 16.1146C34.1942 16.7861 34.4635 17.6048 35.1328 17.9429C38.7987 19.7951 41.8345 22.8414 43.6809 26.5202C43.9195 26.9954 44.3975 27.2697 44.8939 27.2697C45.0992 27.2698 45.3076 27.2229 45.5033 27.124Z" fill="#E8AE2A"></path></svg>